<?xml version="1.0" encoding="UTF-8"?>
<svg id="Optimizely_Icon" data-name="Optimizely Icon" xmlns="http://www.w3.org/2000/svg" viewBox="0 0 950 950">
  <defs>
    <style>
      .cls-1 {
        fill: #abff44;
      }

      .cls-2 {
        fill: #0d3a29;
      }

      .cls-3 {
        fill: #197050;
      }
    </style>
  </defs>
  <rect class="cls-3" x="175.0009" y="175" width="599.9999" height="600" rx="141.1126" ry="141.1126"/>
  <path class="cls-2" d="M439.1205,693.4595c42.3007,0,79.7638-15.7097,118.8425-54.7884l32.2249-32.2249c36.6622-37.0626,53.5825-86.6129,53.5825-145.0284,0-109.5768-61.6376-180.8804-155.9051-180.8804-42.2961,0-79.7638,14.0987-118.8378,52.7723l-32.2296,32.2296c-36.2571,36.2571-53.5778,86.2125-53.5778,144.6233,0,110.3823,61.2325,183.297,155.9005,183.297Z"/>
  <path class="cls-1" d="M487.8662,296.2496c-85.407,0-140.5958,64.0541-140.5958,165.1661,0,102.7277,55.1888,167.5873,140.5958,167.5873,85.002,0,140.1907-64.8596,140.1907-167.5873,0-101.112-55.1888-165.1661-140.1907-165.1661ZM487.463,553.6705c-25.3804,0-42.3007-35.4515-42.3007-92.2514,0-55.1935,16.9203-89.835,42.3007-89.835,24.98,0,42.3007,34.6414,42.3007,89.835,0,56.7999-17.3207,92.2514-42.3007,92.2514Z"/>
</svg>